<?xml version="1.0" encoding="UTF-8"?>
<svg xmlns="http://www.w3.org/2000/svg" viewBox="0 0 741 741">
<rect width="741" height="741" fill="#ff7f00" rx="100" />
  <path fill="#fff" d="M332.78,485.43c51.57-1.92,84.51,66.91,46.88,107.39-22.99,24.26-47.97,51.03-78.72,66.13-18.84,9.25-59.97,17.06-81.35,18.55-34.74,0-68.33-9.63-48.03-53.31,41.46-64.32,243.8-339.77,310.36-435.4-74.18,19.7-84.83-17.58-132.67-27.45-12.4,4.16-29.62,28.19-43.45,34.89-51.64,9.08-14.38-62.87,4.01-79.57,90.42-73.39,105.52,48.1,189.34-2.47,26.97-15.2,76.98-81.14,93.01-27.47-1.95,83.77-238.24,350.94-259.39,398.71h0Z"/>
  <circle fill="#fff" class="cls-1" cx="480.31" cy="606.67" r="40"/>
</svg>